<svg version="1" xmlns="http://www.w3.org/2000/svg" width="2000" height="2000" viewBox="0 0 1500.000000 1500.000000"><path d="M987.5 401.6c-2.7.2-13.5.8-24 1.4-66 3.7-151.8 16.2-199.5 29.2-4.1 1.1-9.3 2.3-11.5 2.7-2.2.4-5.6 1.2-7.5 1.8-4.3 1.4-18.3 5.4-31 8.9-10.8 3-21.1 6.2-35.5 11.1-5.5 1.9-12 4-14.5 4.8-2.5.7-8.3 2.7-13 4.5-4.7 1.7-11.4 4.2-15 5.5-28 10.1-91.3 37.7-94 41-.7.8-2.2 1.5-3.4 1.5-1.2 0-8.5 2.9-16.1 6.5-7.7 3.6-15 6.5-16.4 6.5-1.3 0-9.4 3.8-18 8.4-8.6 4.6-17.5 8.9-19.8 9.5-4.7 1.3-11.6 4.4-18.3 8.3-2.5 1.4-8.3 4.6-13 7.1-15.8 8.3-22.5 12-27.3 14.8-2.6 1.6-4.9 2.9-5.1 2.9-.2 0-3.3 1.8-6.7 4-3.5 2.1-8.9 5.3-11.9 7.1-3 1.8-7 4.3-8.8 5.7-1.9 1.4-6.2 4.4-9.7 6.6-3.5 2.3-11 7.2-16.6 11-5.7 3.8-14.2 9.4-18.9 12.5-4.7 3-10.3 6.9-12.6 8.6-2.2 1.6-5.2 3.9-6.8 5-10.1 7.3-13.3 10-14.9 12.6-1.1 1.7-2.8 2.9-4 2.9-1.2.1-5.3 2.8-9.2 6.1-3.8 3.2-11.3 9.5-16.5 13.8-34.9 28.8-83.7 81.1-101.5 108.8-21.4 33.3-30 50-38.3 74.8-6.8 20.5-10.7 46.3-10 67l.3 10 2.9.3c7 .8 9.2-.5 21.4-12.6 8.4-8.4 12.7-13.5 15.1-18.1l3.3-6.3-1-9.1c-1.2-11.1.8-35.4 3.8-46.2 5-18.1 7.5-25.5 11.9-35 1.7-3.6 3.1-6.8 3.1-7.1 0-1.2 17.8-29.9 20.9-33.7 2-2.4 6.5-8.2 10.1-12.8 13.6-17.4 59.1-60.5 75.4-71.5 2.2-1.4 6.4-4.5 9.3-6.7 5.1-4 8.4-6.6 23.6-17.8 10.3-7.6 36.9-25.4 47.7-31.9 5.2-3.1 13.2-8 17.8-10.8 4.6-2.9 8.5-5.2 8.7-5.2.2 0 5.2-2.8 11.2-6.2 17.7-10.1 23.7-13.3 46.8-24.7 24.5-12.1 35.7-17.4 49-23.2 5-2.2 10.4-4.6 12-5.4 1.7-.8 6.8-3 11.5-5 10.8-4.6 11.1-4.8 31.7-14.4 111.6-52.3 232.7-82.7 367.8-92.1 7.7-.5 31.8-1.5 53.5-2.1 34.9-1.1 43-1 69.7.5 43.5 2.4 73.9 6 103.8 12.3 55.9 11.6 99 30.5 129.7 56.8 8.3 7.1 20.8 21 20.8 23.2 0 .7.8 1.3 1.8 1.3 1.3 0 3.3-2.4 6.1-7 2.3-3.9 4.9-8 5.9-9.2 4.7-5.8 14-15.6 17.3-18.1 5-3.7 5.5-6.3 2-9.6-1.5-1.4-3.2-3.3-3.7-4.2-1.1-2-30.4-23.6-35.4-26.2-1.9-.9-6.4-3.5-10-5.7-10.3-6.4-38.1-18.9-50-22.6-2.5-.7-7.4-2.3-11-3.5-18.3-5.8-27.7-8.3-42.5-10.9-6-1.1-11.7-2.2-12.5-2.5-3.2-1.3-43.8-6.5-63-8.1-15.6-1.4-30.4-1.8-61.5-1.7-22.5 0-42.3.2-44 .3-1.6.1-3.9 0-5-.2-1.1-.3-4.2-.3-7-.2zM1211.8 575.6c-2.4 2.6-6.5 6.8-9.3 9.5l-5 4.8v38.5l2.9 3.9 2.8 4 .2 46.7c.2 49.1.3 50 4.5 50 2.1 0 6.3-4.3 8.6-9 1.4-2.6 1.9-6.2 2-14.5.1-6.1.7-19.1 1.4-29 .7-9.9 1.5-35.6 1.8-57 .3-21.5.6-41.6.7-44.8.1-4.2-.3-6-1.4-6.7-2.9-1.8-5-1-9.2 3.6z"/><path d="M839.1 619.6c-5.2.7-11.3 1.7-13.5 2.3-2.3.6-6.6 1.3-9.6 1.6-9.2 1.1-38.4 7.3-43.6 9.3-2.7 1.1-7.6 2.2-10.9 2.6-3.3.4-9.8 1.8-14.5 3.1-4.7 1.3-10.2 2.6-12.3 2.8-4.6.6-6.4 2-8.3 6.5-1.8 4.3-1.8 4.2.5 4.2 1 0 3.5 1.3 5.6 3 4.4 3.5 3.8 3.4 12.1 1.4 5-1.3 7.1-1.4 8.9-.6 3.2 1.5 4.2 6.7 2.1 11.7-.9 2.1-1.9 6.3-2.2 9.4-.3 3.1-1.2 9.2-2.1 13.6-1.3 7-1.4 14.7-.3 67 .7 33.3 1.6 59.8 2.2 60.8 1.8 3.5 5.1 1.6 8.2-4.8 3.3-6.7 3.4-8.4 5.6-60 .6-14.3 1.3-26.1 1.5-26.3 1.1-1.2 10.6-2.7 47.3-7.6 11-1.5 13.6-2.7 17.6-7.9 4.2-5.4 4.3-8.8.7-13-3.9-4.4-7.1-5.2-13-3.3-2.5.9-14.5 3.6-26.6 6.1-19.8 4.2-22.2 4.9-24.2 7.3-1.9 2.2-2.4 2.4-3.2 1.3-.7-1-.3-2.7 1.1-5.5 1.7-3.4 2-5.1 1.4-11.6-.3-4.3-.1-9.1.5-11.3.8-3.1.7-4.3-.5-6.2-1.1-1.6-1.2-2.6-.5-3.1.7-.4.9-3.2.5-8.3-.6-6.6-.4-7.9 1.3-9.9 2.9-3.4 7.6-4.9 18.6-6.2 5.5-.6 11.6-1.5 13.5-2 6.4-1.6 22.1-3.1 26.8-2.4 4.3.5 5.1.3 8.7-2.6 2.2-1.8 6.3-4.7 9-6.5 6.5-4.2 11.5-9.3 11.5-11.5 0-3-2.8-5-6.8-4.9-2 .1-7.9.8-13.1 1.5zM483 673.2c-1.1 1.2-4.5 7.3-7.6 13.5l-5.7 11.4 1.4 6.2c1 4.3 1.4 13.6 1.4 31v24.9l-3.1 2.7c-2.8 2.5-4 2.8-13 3.4-5.5.3-11.6 1.3-13.8 2.2-2.1.9-7 1.9-10.8 2.2-5.3.5-7.9 1.3-11.3 3.5-4.7 3.1-7.2 3.1-10.8-.1-1.7-1.4-1.8-2.6-1.3-9.6.9-10.5 3.8-67.2 3.7-70.9 0-1.6-.8-3.8-1.8-4.8-4.6-5.2-10.1-5.4-15.1-.6-6.1 5.8-6.3 6.9-5.3 33 .4 12.8.6 26.4.3 30.3-.2 3.8.1 11.9.8 18 1.1 10.7 1.1 11.2-1.3 18-1.3 3.8-3 8.5-3.8 10.3-1.2 3-1.2 3.7 1.1 8 1.4 2.5 3.6 6.2 4.9 8.2 1.8 2.7 2.6 5.5 3.2 12 .4 4.7 1.5 10.3 2.3 12.5.8 2.2 1.5 5.2 1.6 6.7 0 5.5 4.1 23.3 5.7 25 .9 1 2.7 1.8 4 1.8 3.4 0 9.7-6.3 12.3-12.3 1.2-2.8 3.1-7.1 4.1-9.4 1.1-2.3 1.9-4.7 1.9-5.2 0-.7-2.3-1.1-5.5-1.1-7.7 0-8.1-1-9.5-19.9-1-13.6-1-15.9.5-19.7 1.8-4.7 6.1-8.5 12.1-10.8 2.2-.8 7.1-2.7 10.9-4.3 3.9-1.6 9.3-3.5 12-4.2 2.8-.7 7.8-2.7 11.1-4.3 6.9-3.4 10.4-3.3 12.8.5 1.1 1.9 1.1 5.1-.4 22.2-1.4 16.4-2.6 50.6-2.3 69 0 2.2.8 5.7 1.6 7.8 1.5 3.4 2 3.8 4.8 3.5 5.5-.5 6.8-3.6 7.5-17.3.3-6.6.8-12.3 1.1-12.7.2-.5.9-7.2 1.4-15 1.5-20.7 2.7-35.9 3.8-47.8.6-5.8 1-15 1.1-20.5 0-5.5.5-11.6 1.1-13.5 1.4-4.4 2.2-75 .9-80.4-1.3-5.9-5.2-7.4-9-3.4zM1028.5 695.1c-2 1.8-4.3 4.6-5.2 6.3-.8 1.7-3.4 5.6-5.7 8.6-2.3 3-5.9 8.3-8 11.8-2.1 3.4-4.4 6.8-5.1 7.6-.8.7-3.1 3.8-5.2 6.7-8.1 11.6-11.5 14.9-15 14.9-5.7 0-6-2.4-2.5-20.1 1.7-8.5 2.8-16.7 2.5-18.2-.9-4.8-6.7-7.2-10.4-4.4-1.7 1.3-10.2 15.5-15.2 25.2-2.6 5.1-7.2 10.3-8.3 9.3-.3-.4-.1-1.5.5-2.6.6-1.2 1.1-2.9 1.1-3.9s.9-3.6 2-5.8c1.1-2.2 2-4.8 2-5.8 0-5.1-5.3-8.7-9.5-6.4-3.9 2.1-18.4 19.3-22.1 26.4-5.6 10.5-10.1 17-12.9 18.9-2.6 1.7-2.9 1.7-6.3-.2-5.4-2.9-7.4-6.8-6.8-13 1.1-9.9-3.2-18.4-8.4-16.6-2.6.9-7.1 5.5-10.8 11.2-1.9 3-4 5.9-4.6 6.5-.7.5-4.7 5.4-9 10.8-7.8 9.8-11.1 12.3-14.7 11.2-3.5-1.1-2.4-6.3 3.1-14.5 2.8-4.1 6.2-9.3 7.7-11.5 1.4-2.2 3.7-5.4 5-7 1.3-1.7 3-3.9 3.8-5 .8-1.1 3.9-4.9 6.7-8.4 2.9-3.5 6-7.3 6.8-8.5.7-1.1 3.8-4.9 6.7-8.4 4-4.8 5.3-7.1 5.3-9.6 0-4.1-3.5-7.6-7.6-7.6-4.3 0-9.1 4.4-24.6 22.7-16.1 18.9-21.2 25.4-25.8 32.9-1.9 3.1-5.6 8.4-8.2 11.7-4.5 5.5-4.8 6.4-4.8 11.6.1 3.1.7 6.7 1.5 8.1.9 1.6 1.4 5.5 1.5 10.6 0 6.6.4 8.6 2 10.7 2.5 3.2 6.9 4.2 11.5 2.7 4-1.3 16.4-14.1 22.6-23.3 2.1-3.1 5.7-8.4 7.9-11.7 3.1-4.5 4.7-6 6.4-6 4.3 0 6.6 3 7.5 9.5.7 5.2 1.3 6.3 4.6 9.2 4.2 3.6 8.6 4.2 15.7 2.3 4.1-1.2 11.5-9 14.1-15 1.8-4.1 6.1-9 7.8-9 .8 0 1 1.6.5 5.5-1.9 16.8-1.9 15.8.4 18.7 3.4 4.4 11.2 3.2 13-1.9.5-1.6 2.3-5.3 3.9-8.3 1.6-3 3.1-6.6 3.4-8 .6-2.4 2.5-4.7 10.1-11.9l3.5-3.4.9 2.4c.5 1.3 1.2 6.4 1.6 11.3.4 5 1.2 9.8 1.7 10.8 1.6 3 5.5 4 9.2 2.4 4-1.6 9.7-6.4 9.7-8 0-.7 2.8-4.4 6.3-8.2 3.4-3.8 7.7-10 9.6-13.6 3.2-6.6 8.4-11.8 11.5-11.8 3.1 0 3.9 3.9 3.1 14.8-.5 8.1-1.3 12.2-3.6 17.9-4.7 12-4 15.3 3.3 15.3 4.7 0 5.2-.3 10.6-5.9 3.1-3.2 7.5-7.9 9.7-10.4 2.2-2.5 7.7-8.4 12.1-13 8.4-8.7 9.7-11.3 8.7-17.4-1.5-8.9-7.6-5.9-14.3 7-2.2 4.4-7.2 8.8-9.5 8.5-2.9-.4-3.2-8.1-.6-16.1 1.2-3.4 2.5-9.6 3.1-13.7.5-4.1 1.9-11 3-15.3 2.2-8.5 1.9-12-1.3-14.2-3.2-2.2-5.2-1.8-9.2 1.6zM1141.8 747.2c-9.1 9.8-10.1 17.5-2.8 21.3 4.4 2.3 7.8 1.8 13.4-1.9 12.8-8.6 14.5-16.6 4.3-21.5-6.9-3.3-10.3-2.8-14.9 2.1zM1211.5 746.2c-5.5 3-10.6 10.4-10.7 15.7-.1 3.3 2.8 9 4.9 9.8 1.9.8 14.3-2.4 16-4 1.4-1.3 1.8-4.6 1.5-12.5-.3-8.2-5.7-12.4-11.7-9zM540.5 749.2c-1.1.6-4.5 3.4-7.5 6.2-9.8 9.1-14.6 17-19.7 32.3-3.3 9.8-3.7 11.9-3.7 22.3-.1 10 .2 12.3 2.3 17.5 3.9 9.5 7 13.6 13.1 16.8 7.5 3.9 15.6 3.6 25.1-1.1 6.8-3.3 21.8-16.3 27.4-23.6 6.1-8 10.3-11.8 12.7-11.4 3.3.5 4.8 4.4 4.8 13.1 0 10.9 2.2 14.7 8.4 14.7 3.1 0 10.2-5.3 12.2-9.1.8-1.7 4.2-5.9 7.3-9.3 3.2-3.4 6.9-8.7 8.4-11.8 2.8-6 8.6-11.8 11.7-11.8 1.1 0 2.4 1 3.1 2.1 1.6 3.1.2 21.3-2.1 26.6-1 2.3-2.6 7.7-3.6 12-1.9 8.7-3.2 11.8-7.9 18.3-1.8 2.5-5.4 8.5-8 13.5-2.6 4.9-5.5 10.3-6.5 12-.9 1.6-3.2 6.4-5.1 10.5-1.8 4.1-5.2 10.6-7.5 14.5-2.3 3.8-4.7 8.9-5.4 11.2-1.1 3.6-1.1 4.6.4 6.8 1.3 2 2.5 2.5 5.5 2.5 3.2 0 4.8-.8 8.8-4.4 2.6-2.4 5.5-5.7 6.3-7.2.8-1.6 3.7-6.5 6.3-10.9 5.5-8.9 11.8-22.5 18.2-39.1 8.2-21.1 13.2-28.6 33.1-49.8 8.1-8.5 8.4-9 8.4-13.5 0-5.4-1.8-8.5-4.6-8-1.1.3-4.5 4.2-7.9 9.3-6.6 9.8-10.3 12.8-12.9 10.7-2.3-1.9-2-8.3.8-16 1.3-3.6 2.7-9.1 3.1-12.1.4-3 1.8-10.1 3.2-15.7 2.2-8.9 2.3-10.4 1.1-13-2.8-6-12-2.6-16.5 6.1-.9 1.7-3.4 5.3-5.5 8.1-2.2 2.7-6.1 8.4-8.9 12.5-9.5 14.4-20.5 27.7-23.3 28.2-5.6 1.1-8.7-3.4-6.7-9.6 2.3-6.9 5.9-26.3 5.4-28.9-.9-4.8-6.7-7.3-10.4-4.4-.8.7-4.4 6.1-8 12.1-3.5 5.9-8.7 13.6-11.5 17-2.7 3.3-6.1 7.7-7.5 9.7-2.2 3.3-7.6 8.1-16.4 14.6-1.6 1.2-5.6 3.6-8.7 5.3-7.5 3.9-12.2 4-17.6 0-5-3.6-6.2-5.7-6.2-11 0-3.9.6-4.8 8.7-13.1 9.2-9.4 16.4-20.3 18.8-28.3 2.2-7.4 2-15.7-.6-19-3.9-5-10.1-6.8-14.4-4.4zm.9 25.4c.9.8 1.6 1.9 1.6 2.4 0 1.9-2.6 6.7-6.3 11.7-3.1 4.3-4.3 5.3-6.7 5.3-2.4 0-3.1-.5-3.6-2.6-1-3.9 1.6-10.4 5.7-14.7 3.9-4 6.8-4.6 9.3-2.1zM1091.8 750.7c-4.3.7-11.7 12.2-11.8 18.5 0 2.7 4.2 7.1 8 8.3 4.2 1.3 18.2-9.3 19.6-14.9.8-3.5-2-9.4-5.1-10.6-3.2-1.2-7.8-1.8-10.7-1.3z"/><path d="M265.5 820.5c-2.2.8-7.4 2.2-11.6 3-12.8 2.6-23.5 7.2-39.4 16.9-13.9 8.4-30.4 24.9-35.8 35.7-2.5 4.9-3.7 8.6-3.5 10.5.3 2.6.6 2.9 3.9 2.8 3.9-.1 9.4-3.5 16.9-10.4 5.3-4.8 14.3-9.4 22.6-11.3 3.2-.8 8.5-2.2 11.8-3.2 7.7-2.3 24.4-1.8 29.6.9 2.9 1.5 7.2 5.5 10.9 10.2.5.6 1.1 8.4 1.3 17.5.5 17 2 25 7 37.4 1.1 2.7 2.4 7.2 2.7 9.8.6 3.7 1.6 5.7 4.9 9 2.3 2.4 4.2 4.9 4.2 5.6 0 1.9 11.3 16 21.9 27.3 5 5.4 9.1 10.2 9.1 10.8 0 .5 2.6 2.7 5.8 4.9 3.1 2.1 9.3 7.3 13.7 11.5 4.4 4.3 9.3 8.4 11 9.3 1.6.9 8.1 5.2 14.4 9.7 33 23.3 72.6 42.9 118.6 58.6 9.4 3.2 18.8 6.5 21 7.4 2.2.8 5 1.5 6.3 1.6 1.3 0 7.6 1.3 14 2.9 25.5 6.4 55.7 11.5 89.6 15.2 24.5 2.6 89.3 3.7 115.6 1.9 9.6-.6 18.4-1.2 19.5-1.2 1.1 0 9.9-.9 19.5-1.9 78.7-8.5 159.8-29 241.1-61 9.9-3.9 19.9-8.2 22.2-9.5 2.3-1.3 4.9-2.4 5.7-2.4.8 0 6-2.1 11.5-4.6 5.5-2.4 12.3-5.4 15-6.6 21.6-9.4 84.7-43.3 106.2-57.1 4-2.6 8.5-5 10-5.3 8.7-2.2 13.5-5.3 37.5-24.2 22.9-18.1 49.8-42.4 49.8-45 0-.6.9-1.3 1.9-1.7 3-.9 33-33.5 38.7-42 2.3-3.4 3.2-16.2 1.4-19.6-2.5-4.7-6.4-1.9-16 11.6-6.8 9.6-20.9 25.3-32.9 36.7-5 4.8-9.1 9.4-9.1 10.2 0 .8-.9 1.7-2 2.1-1 .3-4.8 3.2-8.2 6.3-7.2 6.5-25.3 20.8-34.3 27.1-6.3 4.4-21.8 14.8-24.7 16.6-2.1 1.3-12.5 7.7-14.6 9-1 .6-3.5 2.2-5.7 3.6s-6.7 4.1-10 5.9c-3.3 1.8-6.5 3.7-7.2 4.2-2.3 1.8-20.1 11-42.8 22.2-105.3 51.9-214.3 81-328 87.7-24.7 1.4-88.1.6-115-1.5-66.2-5.2-118.7-15.4-163.9-31.8-33.4-12-58-24.9-88.6-46.5-8.5-6-18-12.6-21-14.8-20.8-14.6-43.5-37.6-53.1-53.9-1.2-2-3-4.1-4-4.7-1.1-.5-1.9-1.6-1.9-2.4 0-.9-1.8-5-4-9.3-4.1-8.1-8.2-18.7-10-26.2-.6-2.5-1.3-5.2-1.5-6-2-6.7-2.5-11.4-2.5-24.1 0-16.5-1.3-22.4-6.2-28.4-5.3-6.3-9.6-7.9-23.3-8.2-8.8-.2-13.1.1-16 1.2z"/></svg>